<?xml version="1.0" encoding="UTF-8"?><svg id="Layer_1" xmlns="http://www.w3.org/2000/svg" viewBox="0 0 1080 1080"><path d="M333.62,671.87c3.03,4.56,22.78-8.39,27.07-10.75,49.44-27.24,87.19-53.75,91.08-115.52,2.66-42.26,3.08-107.57-.02-149.58-3.65-49.49-39.35-93.8-87.46-106.23-8.92-2.31-23.39-6.6-30.67-.69v382.77Z"/><path d="M681.92,672.18c-51.25-29.33-91.21-61.27-153.72-39.09l-174.3,98.71c-7.56,8.15,15.83,29.82,22.13,35.09,42.96,35.94,92.2,33.05,139.61,8.6,46.72-24.09,98.48-55.68,143.88-83.01,5.85-3.52,26.73-12.8,22.39-20.3Z"/><path d="M726.07,631.01c9.82,2.08,17.16-29.06,18.42-36.2,8.74-49.46-13.34-94.56-54.28-121.81-53.39-35.54-116.76-63.09-170.8-98.54-6.17-3.13-8.05-1.33-8.78,4.93-1.32,11.32-.96,32.32-.72,44.36,1.13,57.72,13.98,87.63,62.97,118.61,49.43,31.26,103.7,57.16,153.19,88.64Z"/></svg>