<?xml version="1.0" encoding="UTF-8"?><svg id="Layer_1" xmlns="http://www.w3.org/2000/svg" viewBox="0 0 1920 1080"><path d="M282.72,625.46c1.96,2.96,14.76-5.44,17.54-6.97,32.04-17.65,56.5-34.83,59.03-74.86,1.73-27.39,2-69.71-.01-96.93-2.36-32.07-25.5-60.78-56.68-68.84-5.78-1.49-15.16-4.28-19.88-.45v248.06Z"/><path d="M508.44,625.66c-33.21-19.01-59.11-39.7-99.62-25.33l-112.96,63.97c-4.9,5.28,10.26,19.32,14.34,22.74,27.84,23.29,59.75,21.42,90.48,5.57,30.28-15.61,63.82-36.08,93.24-53.8,3.79-2.28,17.32-8.29,14.51-13.15Z"/><path d="M537.05,598.98c6.37,1.35,11.12-18.83,11.94-23.46,5.66-32.05-8.65-61.28-35.18-78.94-34.6-23.03-75.67-40.89-110.69-63.86-4-2.03-5.22-.86-5.69,3.2-.85,7.34-.62,20.95-.47,28.75.73,37.4,9.06,56.79,40.81,76.87,32.03,20.26,67.2,37.04,99.28,57.44Z"/><path d="M282.72,625.46c1.96,2.96,14.76-5.44,17.54-6.97,32.04-17.65,56.5-34.83,59.03-74.86,1.73-27.39,2-69.71-.01-96.93-2.36-32.07-25.5-60.78-56.68-68.84-5.78-1.49-15.16-4.28-19.88-.45v248.06Z"/><path d="M508.44,625.66c-33.21-19.01-59.11-39.7-99.62-25.33l-112.96,63.97c-4.9,5.28,10.26,19.32,14.34,22.74,27.84,23.29,59.75,21.42,90.48,5.57,30.28-15.61,63.82-36.08,93.24-53.8,3.79-2.28,17.32-8.29,14.51-13.15Z"/><path d="M537.05,598.98c6.37,1.35,11.12-18.83,11.94-23.46,5.66-32.05-8.65-61.28-35.18-78.94-34.6-23.03-75.67-40.89-110.69-63.86-4-2.03-5.22-.86-5.69,3.2-.85,7.34-.62,20.95-.47,28.75.73,37.4,9.06,56.79,40.81,76.87,32.03,20.26,67.2,37.04,99.28,57.44Z"/><path d="M1591.44,433.61h18.76v1.75h-8.43v22.83h-1.9v-22.83h-8.43v-1.75Z"/><path d="M1613.43,433.61h2.42l9.55,22.02,9.48-22.02h2.39v24.59h-1.86v-21.39l-9.2,21.39h-1.72l-9.2-21.39v21.39h-1.86v-24.59Z"/><path d="M792.82,569.42c0,41.69-26.22,69.23-62.67,69.23-19.41,0-32.78-8.39-41.43-19.93l-3.67,18.36h-32.25v-183.56h36.97v65.82c8.92-10.75,22.03-18.62,40.65-18.62,36.19,0,62.41,25.96,62.41,68.7ZM755.33,569.68c0-23.08-13.11-38.81-33.3-38.81s-32.78,15.73-32.78,38.55,12.59,39.07,32.78,39.07,33.3-15.73,33.3-38.81Z"/><path d="M808.03,569.95c0-41.96,27.53-69.23,69.23-69.23s67.65,25.17,68.18,64.77c0,3.93-.26,8.39-1.05,12.59h-97.81v1.84c.79,19.14,13.11,30.68,31.73,30.68,14.95,0,25.44-6.56,28.58-19.14h36.45c-4.2,26.22-27.53,47.2-63.46,47.2-44.84,0-71.85-27.01-71.85-68.7ZM908.2,553.95c-2.62-16.52-13.9-25.7-30.68-25.7s-28.06,9.7-30.16,25.7h60.84Z"/><path d="M974.81,533.5h-22.29v-31.2h22.29v-37.76h36.97v37.76h30.94v31.2h-30.94v59c0,9.44,3.67,13.37,13.37,13.37h18.36v31.21h-30.16c-25.7,0-38.55-12.85-38.55-38.55v-65.03Z"/><path d="M1192.46,605.87v31.21h-18.88c-19.14,0-25.17-9.18-24.91-22.03-9.44,14.95-23.08,23.6-44.05,23.6-29.11,0-50.09-13.9-50.09-39.6,0-28.58,21.5-44.84,61.88-44.84h26.75v-6.56c0-12.06-8.66-19.93-24.13-19.93-14.42,0-24.12,6.56-25.7,16.52h-35.66c2.62-26.22,26.75-43.53,62.41-43.53,37.76,0,59.52,16.78,59.52,49.04v47.72c0,7.08,2.89,8.39,8.65,8.39h4.2ZM1143.16,578.86h-27.01c-15.47,0-24.39,6.29-24.39,17.57,0,9.44,7.6,15.47,19.93,15.47,19.4,0,31.2-12.06,31.47-30.42v-2.62Z"/><path d="M1331.7,624.75v12.32h-7.87c-15.73,0-22.29-6.82-21.76-22.55v-4.72c-8.13,16.52-24.12,28.84-51.13,28.84s-46.94-14.42-46.94-38.02c0-24.91,18.36-39.59,52.44-39.59h45.1v-11.54c0-22.03-14.16-35.14-39.07-35.14-22.55,0-36.71,10.75-40.12,27.01h-13.37c3.41-24.12,23.6-38.81,54.02-38.81,33.3,0,51.92,17.04,51.92,47.46v61.88c0,10.23,3.93,12.85,11.8,12.85h4.98ZM1301.54,572.57h-46.15c-24.65,0-37.76,9.7-37.76,27.27,0,16.52,13.11,27.27,34.35,27.27,31.47,0,49.56-18.36,49.56-43.79v-10.75Z"/><path d="M1455.99,453.52h13.37v183.56h-11.54l-2.1-30.42c-8.39,18.62-25.7,31.99-50.61,31.99-36.45,0-62.67-26.22-62.67-68.18s26.22-67.91,62.67-67.91c24.91,0,42.74,12.59,50.87,31.47v-80.5ZM1456.25,570.73c0-33.04-20.45-56.38-50.08-56.38s-50.09,23.34-50.09,56.11,20.45,56.12,50.09,56.12,50.08-23.08,50.08-55.86Z"/><path d="M1508.44,596.17c1.05,19.14,17.57,30.94,43,30.94,21.76,0,38.29-9.96,38.29-25.7,0-19.67-18.09-22.55-40.38-25.7-27.27-3.67-51.92-8.65-51.92-35.4,0-22.81,21.24-38.02,50.87-37.76,28.85,0,50.09,13.11,52.45,39.07h-13.64c-2.36-17.31-17.57-27.53-38.81-27.53-22.55,0-37.5,9.96-37.5,25.17,0,18.62,18.36,20.98,39.07,23.86,28.58,3.93,53.23,9.44,53.23,37.5,0,23.6-23.08,38.02-51.66,38.02-33.3,0-55.59-14.95-56.64-42.48h13.64Z"/></svg>